<?xml version="1.0" standalone="no"?>
<!DOCTYPE svg PUBLIC "-//W3C//DTD SVG 20010904//EN"
 "http://www.w3.org/TR/2001/REC-SVG-20010904/DTD/svg10.dtd">
<svg version="1.0" xmlns="http://www.w3.org/2000/svg"
 width="294.000000pt" height="218.000000pt" viewBox="0 0 294.000000 218.000000"
 preserveAspectRatio="xMidYMid meet">

<g transform="translate(0.000000,218.000000) scale(0.100000,-0.100000)"
fill="#000000" stroke="none">
<path d="M688 1717 l262 -262 -265 -265 -265 -265 0 -117 0 -118 242 0 243 0
230 230 230 230 70 -70 69 -70 -74 0 -75 0 -160 -160 -160 -160 720 0 720 0
-260 260 -260 260 268 268 267 267 0 118 0 117 -247 0 -248 0 -230 -230 -230
-230 -65 65 -64 65 69 0 70 0 165 165 165 165 -725 0 -725 0 263 -263z"/>
<path d="M205 496 c-43 -19 -57 -39 -53 -82 4 -51 40 -71 143 -81 61 -6 80
-12 80 -23 0 -21 -51 -25 -80 -6 -15 10 -47 16 -85 16 -53 0 -60 -2 -60 -20 0
-24 31 -57 66 -70 33 -13 205 -13 238 0 41 15 66 47 66 83 0 17 -4 37 -8 44
-13 21 -79 43 -129 43 -61 0 -95 9 -90 24 6 17 53 19 70 2 21 -21 147 -23 147
-2 0 25 -41 65 -78 76 -52 14 -191 12 -227 -4z"/>
<path d="M520 475 l0 -35 50 0 50 0 0 -110 0 -110 75 0 75 0 0 110 0 110 50 0
50 0 0 35 0 35 -175 0 -175 0 0 -35z"/>
<path d="M900 402 c0 -158 24 -182 180 -182 160 0 190 31 190 194 l0 96 -65 0
-65 0 0 -100 c0 -90 -2 -100 -20 -110 -22 -12 -60 -4 -72 14 -4 6 -8 53 -8
104 l0 92 -70 0 -70 0 0 -108z"/>
<path d="M1290 365 l0 -145 140 0 c155 0 192 9 228 55 17 22 22 41 22 91 0
117 -49 144 -264 144 l-126 0 0 -145z m221 65 c15 -9 19 -22 19 -66 0 -49 -2
-55 -26 -64 -58 -23 -64 -17 -64 65 0 74 0 75 26 75 14 0 34 -5 45 -10z"/>
<path d="M1700 365 l0 -145 75 0 75 0 0 145 0 145 -75 0 -75 0 0 -145z"/>
<path d="M1943 491 c-56 -26 -76 -66 -71 -142 7 -100 53 -129 202 -129 106 0
136 8 171 46 22 23 25 37 25 95 0 114 -48 149 -205 149 -57 0 -92 -6 -122 -19z
m165 -67 c19 -13 23 -23 20 -62 -2 -38 -8 -49 -30 -61 -21 -12 -31 -13 -52 -3
-23 10 -26 17 -26 66 0 42 4 57 18 65 24 15 44 13 70 -5z"/>
<path d="M2380 503 c0 -5 21 -35 45 -67 25 -33 45 -64 45 -69 0 -5 -20 -38
-45 -73 -25 -34 -45 -65 -45 -68 0 -3 27 -6 60 -6 59 0 60 1 87 41 30 45 30
45 73 -20 14 -20 22 -22 88 -19 l72 3 -50 69 -50 68 43 62 c24 33 46 67 50 74
6 9 -7 12 -55 12 -63 0 -63 0 -88 -40 -14 -22 -27 -40 -30 -40 -3 0 -16 18
-30 40 l-25 40 -72 0 c-40 0 -73 -3 -73 -7z"/>
</g>
</svg>
